#VRML V2.0 utf8
# Ultra Choc Wings part model, generated by scripts/make_3d_models.py
# Units are 0.1 inch, as KiCad expects.
Shape { appearance Appearance { material Material { diffuseColor 0.08 0.08 0.09 specularColor 0.3 0.3 0.3 ambientColor 0.040 0.040 0.045 shininess 0.3 } }
  geometry IndexedFaceSet { ccw TRUE solid FALSE creaseAngle 0.5 coord Coordinate { point [ 4.33071 0.00000 0.00000, 4.24750 0.84488 0.00000, 4.00105 1.65729 0.00000, 3.60085 2.40601 0.00000, 3.06227 3.06227 0.00000, 2.40601 3.60085 0.00000, 1.65729 4.00105 0.00000, 0.84488 4.24750 0.00000, 0.00000 4.33071 0.00000, -0.84488 4.24750 0.00000, -1.65729 4.00105 0.00000, -2.40601 3.60085 0.00000, -3.06227 3.06227 0.00000, -3.60085 2.40601 0.00000, -4.00105 1.65729 0.00000, -4.24750 0.84488 0.00000, -4.33071 0.00000 0.00000, -4.24750 -0.84488 0.00000, -4.00105 -1.65729 0.00000, -3.60085 -2.40601 0.00000, -3.06227 -3.06227 0.00000, -2.40601 -3.60085 0.00000, -1.65729 -4.00105 0.00000, -0.84488 -4.24750 0.00000, -0.00000 -4.33071 0.00000, 0.84488 -4.24750 0.00000, 1.65729 -4.00105 0.00000, 2.40601 -3.60085 0.00000, 3.06227 -3.06227 0.00000, 3.60085 -2.40601 0.00000, 4.00105 -1.65729 0.00000, 4.24750 -0.84488 0.00000, 4.33071 0.00000 0.55118, 4.24750 0.84488 0.55118, 4.00105 1.65729 0.55118, 3.60085 2.40601 0.55118, 3.06227 3.06227 0.55118, 2.40601 3.60085 0.55118, 1.65729 4.00105 0.55118, 0.84488 4.24750 0.55118, 0.00000 4.33071 0.55118, -0.84488 4.24750 0.55118, -1.65729 4.00105 0.55118, -2.40601 3.60085 0.55118, -3.06227 3.06227 0.55118, -3.60085 2.40601 0.55118, -4.00105 1.65729 0.55118, -4.24750 0.84488 0.55118, -4.33071 0.00000 0.55118, -4.24750 -0.84488 0.55118, -4.00105 -1.65729 0.55118, -3.60085 -2.40601 0.55118, -3.06227 -3.06227 0.55118, -2.40601 -3.60085 0.55118, -1.65729 -4.00105 0.55118, -0.84488 -4.24750 0.55118, -0.00000 -4.33071 0.55118, 0.84488 -4.24750 0.55118, 1.65729 -4.00105 0.55118, 2.40601 -3.60085 0.55118, 3.06227 -3.06227 0.55118, 3.60085 -2.40601 0.55118, 4.00105 -1.65729 0.55118, 4.24750 -0.84488 0.55118 ] }
    coordIndex [ 31 30 29 28 27 26 25 24 23 22 21 20 19 18 17 16 15 14 13 12 11 10 9 8 7 6 5 4 3 2 1 0 -1, 32 33 34 35 36 37 38 39 40 41 42 43 44 45 46 47 48 49 50 51 52 53 54 55 56 57 58 59 60 61 62 63 -1, 0 1 33 32 -1, 1 2 34 33 -1, 2 3 35 34 -1, 3 4 36 35 -1, 4 5 37 36 -1, 5 6 38 37 -1, 6 7 39 38 -1, 7 8 40 39 -1, 8 9 41 40 -1, 9 10 42 41 -1, 10 11 43 42 -1, 11 12 44 43 -1, 12 13 45 44 -1, 13 14 46 45 -1, 14 15 47 46 -1, 15 16 48 47 -1, 16 17 49 48 -1, 17 18 50 49 -1, 18 19 51 50 -1, 19 20 52 51 -1, 20 21 53 52 -1, 21 22 54 53 -1, 22 23 55 54 -1, 23 24 56 55 -1, 24 25 57 56 -1, 25 26 58 57 -1, 26 27 59 58 -1, 27 28 60 59 -1, 28 29 61 60 -1, 29 30 62 61 -1, 30 31 63 62 -1, 31 0 32 63 -1 ] } }
Shape { appearance Appearance { material Material { diffuseColor 0.78 0.78 0.8 specularColor 0.3 0.3 0.3 ambientColor 0.390 0.390 0.400 shininess 0.3 } }
  geometry IndexedFaceSet { ccw TRUE solid FALSE creaseAngle 0.5 coord Coordinate { point [ 3.93701 0.00000 0.55118, 3.86136 0.76807 0.55118, 3.63732 1.50663 0.55118, 3.27350 2.18728 0.55118, 2.78388 2.78388 0.55118, 2.18728 3.27350 0.55118, 1.50663 3.63732 0.55118, 0.76807 3.86136 0.55118, 0.00000 3.93701 0.55118, -0.76807 3.86136 0.55118, -1.50663 3.63732 0.55118, -2.18728 3.27350 0.55118, -2.78388 2.78388 0.55118, -3.27350 2.18728 0.55118, -3.63732 1.50663 0.55118, -3.86136 0.76807 0.55118, -3.93701 0.00000 0.55118, -3.86136 -0.76807 0.55118, -3.63732 -1.50663 0.55118, -3.27350 -2.18728 0.55118, -2.78388 -2.78388 0.55118, -2.18728 -3.27350 0.55118, -1.50663 -3.63732 0.55118, -0.76807 -3.86136 0.55118, -0.00000 -3.93701 0.55118, 0.76807 -3.86136 0.55118, 1.50663 -3.63732 0.55118, 2.18728 -3.27350 0.55118, 2.78388 -2.78388 0.55118, 3.27350 -2.18728 0.55118, 3.63732 -1.50663 0.55118, 3.86136 -0.76807 0.55118, 3.93701 0.00000 1.81102, 3.86136 0.76807 1.81102, 3.63732 1.50663 1.81102, 3.27350 2.18728 1.81102, 2.78388 2.78388 1.81102, 2.18728 3.27350 1.81102, 1.50663 3.63732 1.81102, 0.76807 3.86136 1.81102, 0.00000 3.93701 1.81102, -0.76807 3.86136 1.81102, -1.50663 3.63732 1.81102, -2.18728 3.27350 1.81102, -2.78388 2.78388 1.81102, -3.27350 2.18728 1.81102, -3.63732 1.50663 1.81102, -3.86136 0.76807 1.81102, -3.93701 0.00000 1.81102, -3.86136 -0.76807 1.81102, -3.63732 -1.50663 1.81102, -3.27350 -2.18728 1.81102, -2.78388 -2.78388 1.81102, -2.18728 -3.27350 1.81102, -1.50663 -3.63732 1.81102, -0.76807 -3.86136 1.81102, -0.00000 -3.93701 1.81102, 0.76807 -3.86136 1.81102, 1.50663 -3.63732 1.81102, 2.18728 -3.27350 1.81102, 2.78388 -2.78388 1.81102, 3.27350 -2.18728 1.81102, 3.63732 -1.50663 1.81102, 3.86136 -0.76807 1.81102 ] }
    coordIndex [ 31 30 29 28 27 26 25 24 23 22 21 20 19 18 17 16 15 14 13 12 11 10 9 8 7 6 5 4 3 2 1 0 -1, 32 33 34 35 36 37 38 39 40 41 42 43 44 45 46 47 48 49 50 51 52 53 54 55 56 57 58 59 60 61 62 63 -1, 0 1 33 32 -1, 1 2 34 33 -1, 2 3 35 34 -1, 3 4 36 35 -1, 4 5 37 36 -1, 5 6 38 37 -1, 6 7 39 38 -1, 7 8 40 39 -1, 8 9 41 40 -1, 9 10 42 41 -1, 10 11 43 42 -1, 11 12 44 43 -1, 12 13 45 44 -1, 13 14 46 45 -1, 14 15 47 46 -1, 15 16 48 47 -1, 16 17 49 48 -1, 17 18 50 49 -1, 18 19 51 50 -1, 19 20 52 51 -1, 20 21 53 52 -1, 21 22 54 53 -1, 22 23 55 54 -1, 23 24 56 55 -1, 24 25 57 56 -1, 25 26 58 57 -1, 26 27 59 58 -1, 27 28 60 59 -1, 28 29 61 60 -1, 29 30 62 61 -1, 30 31 63 62 -1, 31 0 32 63 -1 ] } }
Shape { appearance Appearance { material Material { diffuseColor 0.78 0.78 0.8 specularColor 0.3 0.3 0.3 ambientColor 0.390 0.390 0.400 shininess 0.3 } }
  geometry IndexedFaceSet { ccw TRUE solid FALSE creaseAngle 0.5 coord Coordinate { point [ -5.19685 -1.09449 0.00000, -4.17323 -1.09449 0.00000, -4.17323 1.09449 0.00000, -5.19685 1.09449 0.00000, -5.19685 -1.09449 1.41732, -4.17323 -1.09449 1.41732, -4.17323 1.09449 1.41732, -5.19685 1.09449 1.41732 ] }
    coordIndex [ 0 3 2 1 -1, 4 5 6 7 -1, 0 1 5 4 -1, 1 2 6 5 -1, 2 3 7 6 -1, 3 0 4 7 -1 ] } }
Shape { appearance Appearance { material Material { diffuseColor 0.78 0.78 0.8 specularColor 0.3 0.3 0.3 ambientColor 0.390 0.390 0.400 shininess 0.3 } }
  geometry IndexedFaceSet { ccw TRUE solid FALSE creaseAngle 0.5 coord Coordinate { point [ 4.17323 -1.09449 0.00000, 5.19685 -1.09449 0.00000, 5.19685 1.09449 0.00000, 4.17323 1.09449 0.00000, 4.17323 -1.09449 1.41732, 5.19685 -1.09449 1.41732, 5.19685 1.09449 1.41732, 4.17323 1.09449 1.41732 ] }
    coordIndex [ 0 3 2 1 -1, 4 5 6 7 -1, 0 1 5 4 -1, 1 2 6 5 -1, 2 3 7 6 -1, 3 0 4 7 -1 ] } }
