#VRML V2.0 utf8
# Ultra Choc Wings part model, generated by scripts/make_3d_models.py
# Units are 0.1 inch, as KiCad expects.
Shape { appearance Appearance { material Material { diffuseColor 0.2 0.2 0.22 specularColor 0.3 0.3 0.3 ambientColor 0.100 0.100 0.110 shininess 0.3 } }
  geometry IndexedFaceSet { ccw TRUE solid FALSE creaseAngle 0.5 coord Coordinate { point [ -1.65354 -1.18110 0.00000, 1.65354 -1.18110 0.00000, 1.65354 0.59055 0.00000, -1.65354 0.59055 0.00000, -1.65354 -1.18110 0.78740, 1.65354 -1.18110 0.78740, 1.65354 0.59055 0.78740, -1.65354 0.59055 0.78740 ] }
    coordIndex [ 0 3 2 1 -1, 4 5 6 7 -1, 0 1 5 4 -1, 1 2 6 5 -1, 2 3 7 6 -1, 3 0 4 7 -1 ] } }
Shape { appearance Appearance { material Material { diffuseColor 0.78 0.78 0.8 specularColor 0.3 0.3 0.3 ambientColor 0.390 0.390 0.400 shininess 0.3 } }
  geometry IndexedFaceSet { ccw TRUE solid FALSE creaseAngle 0.5 coord Coordinate { point [ -0.35433 0.59055 0.23622, 0.35433 0.59055 0.23622, 0.35433 1.61417 0.23622, -0.35433 1.61417 0.23622, -0.35433 0.59055 0.70866, 0.35433 0.59055 0.70866, 0.35433 1.61417 0.70866, -0.35433 1.61417 0.70866 ] }
    coordIndex [ 0 3 2 1 -1, 4 5 6 7 -1, 0 1 5 4 -1, 1 2 6 5 -1, 2 3 7 6 -1, 3 0 4 7 -1 ] } }
