#VRML V2.0 utf8
# Ultra Choc Wings part model, generated by scripts/make_3d_models.py
# Units are 0.1 inch, as KiCad expects.
Shape { appearance Appearance { material Material { diffuseColor 0.08 0.08 0.09 specularColor 0.3 0.3 0.3 ambientColor 0.040 0.040 0.045 shininess 0.3 } }
  geometry IndexedFaceSet { ccw TRUE solid FALSE creaseAngle 0.5 coord Coordinate { point [ -0.19685 -0.24606 0.00000, 0.19685 -0.24606 0.00000, 0.19685 0.24606 0.00000, -0.19685 0.24606 0.00000, -0.19685 -0.24606 0.35433, 0.19685 -0.24606 0.35433, 0.19685 0.24606 0.35433, -0.19685 0.24606 0.35433 ] }
    coordIndex [ 0 3 2 1 -1, 4 5 6 7 -1, 0 1 5 4 -1, 1 2 6 5 -1, 2 3 7 6 -1, 3 0 4 7 -1 ] } }
Shape { appearance Appearance { material Material { diffuseColor 0.78 0.78 0.8 specularColor 0.3 0.3 0.3 ambientColor 0.390 0.390 0.400 shininess 0.3 } }
  geometry IndexedFaceSet { ccw TRUE solid FALSE creaseAngle 0.5 coord Coordinate { point [ -0.33465 -0.24606 0.00000, -0.19685 -0.24606 0.00000, -0.19685 0.24606 0.00000, -0.33465 0.24606 0.00000, -0.33465 -0.24606 0.35433, -0.19685 -0.24606 0.35433, -0.19685 0.24606 0.35433, -0.33465 0.24606 0.35433 ] }
    coordIndex [ 0 3 2 1 -1, 4 5 6 7 -1, 0 1 5 4 -1, 1 2 6 5 -1, 2 3 7 6 -1, 3 0 4 7 -1 ] } }
Shape { appearance Appearance { material Material { diffuseColor 0.78 0.78 0.8 specularColor 0.3 0.3 0.3 ambientColor 0.390 0.390 0.400 shininess 0.3 } }
  geometry IndexedFaceSet { ccw TRUE solid FALSE creaseAngle 0.5 coord Coordinate { point [ 0.19685 -0.24606 0.00000, 0.33465 -0.24606 0.00000, 0.33465 0.24606 0.00000, 0.19685 0.24606 0.00000, 0.19685 -0.24606 0.35433, 0.33465 -0.24606 0.35433, 0.33465 0.24606 0.35433, 0.19685 0.24606 0.35433 ] }
    coordIndex [ 0 3 2 1 -1, 4 5 6 7 -1, 0 1 5 4 -1, 1 2 6 5 -1, 2 3 7 6 -1, 3 0 4 7 -1 ] } }
