#VRML V2.0 utf8
# Ultra Choc Wings part model, generated by scripts/make_3d_models.py
# Units are 0.1 inch, as KiCad expects.
Shape { appearance Appearance { material Material { diffuseColor 0.2 0.2 0.22 specularColor 0.3 0.3 0.3 ambientColor 0.100 0.100 0.110 shininess 0.3 } }
  geometry IndexedFaceSet { ccw TRUE solid FALSE creaseAngle 0.5 coord Coordinate { point [ -2.71654 -2.71654 0.00000, 2.71654 -2.71654 0.00000, 2.71654 2.71654 0.00000, -2.71654 2.71654 0.00000, -2.71654 -2.71654 0.86614, 2.71654 -2.71654 0.86614, 2.71654 2.71654 0.86614, -2.71654 2.71654 0.86614 ] }
    coordIndex [ 0 3 2 1 -1, 4 5 6 7 -1, 0 1 5 4 -1, 1 2 6 5 -1, 2 3 7 6 -1, 3 0 4 7 -1 ] } }
Shape { appearance Appearance { material Material { diffuseColor 0.92 0.92 0.9 specularColor 0.3 0.3 0.3 ambientColor 0.460 0.460 0.450 shininess 0.3 } }
  geometry IndexedFaceSet { ccw TRUE solid FALSE creaseAngle 0.5 coord Coordinate { point [ -0.82677 -0.59055 0.86614, 0.82677 -0.59055 0.86614, 0.82677 0.59055 0.86614, -0.82677 0.59055 0.86614, -0.82677 -0.59055 1.25984, 0.82677 -0.59055 1.25984, 0.82677 0.59055 1.25984, -0.82677 0.59055 1.25984 ] }
    coordIndex [ 0 3 2 1 -1, 4 5 6 7 -1, 0 1 5 4 -1, 1 2 6 5 -1, 2 3 7 6 -1, 3 0 4 7 -1 ] } }
