#VRML V2.0 utf8
# Ultra Choc Wings part model, generated by scripts/make_3d_models.py
# Units are 0.1 inch, as KiCad expects.
Shape { appearance Appearance { material Material { diffuseColor 0.08 0.08 0.09 specularColor 0.3 0.3 0.3 ambientColor 0.040 0.040 0.045 shininess 0.3 } }
  geometry IndexedFaceSet { ccw TRUE solid FALSE creaseAngle 0.5 coord Coordinate { point [ -8.30709 0.00000 0.11811, -0.03937 0.00000 0.11811, -0.03937 7.00000 0.11811, -8.30709 7.00000 0.11811, -8.30709 0.00000 0.51181, -0.03937 0.00000 0.51181, -0.03937 7.00000 0.51181, -8.30709 7.00000 0.51181 ] }
    coordIndex [ 0 3 2 1 -1, 4 5 6 7 -1, 0 1 5 4 -1, 1 2 6 5 -1, 2 3 7 6 -1, 3 0 4 7 -1 ] } }
Shape { appearance Appearance { material Material { diffuseColor 0.78 0.78 0.8 specularColor 0.3 0.3 0.3 ambientColor 0.390 0.390 0.400 shininess 0.3 } }
  geometry IndexedFaceSet { ccw TRUE solid FALSE creaseAngle 0.5 coord Coordinate { point [ -8.44488 1.74016 0.50000, -5.57087 1.74016 0.50000, -5.57087 5.25984 0.50000, -8.44488 5.25984 0.50000, -8.44488 1.74016 1.78346, -5.57087 1.74016 1.78346, -5.57087 5.25984 1.78346, -8.44488 5.25984 1.78346 ] }
    coordIndex [ 0 3 2 1 -1, 4 5 6 7 -1, 0 1 5 4 -1, 1 2 6 5 -1, 2 3 7 6 -1, 3 0 4 7 -1 ] } }
Shape { appearance Appearance { material Material { diffuseColor 0.78 0.78 0.8 specularColor 0.3 0.3 0.3 ambientColor 0.390 0.390 0.400 shininess 0.3 } }
  geometry IndexedFaceSet { ccw TRUE solid FALSE creaseAngle 0.5 coord Coordinate { point [ -4.82283 1.82677 0.51181, -1.87008 1.82677 0.51181, -1.87008 5.17323 0.51181, -4.82283 5.17323 0.51181, -4.82283 1.82677 0.98425, -1.87008 1.82677 0.98425, -1.87008 5.17323 0.98425, -4.82283 5.17323 0.98425 ] }
    coordIndex [ 0 3 2 1 -1, 4 5 6 7 -1, 0 1 5 4 -1, 1 2 6 5 -1, 2 3 7 6 -1, 3 0 4 7 -1 ] } }
