#VRML V2.0 utf8
# Ultra Choc Wings part model, generated by scripts/make_3d_models.py
# Units are 0.1 inch, as KiCad expects.
Shape { appearance Appearance { material Material { diffuseColor 0.85 0.12 0.1 specularColor 0.3 0.3 0.3 ambientColor 0.425 0.060 0.050 shininess 0.3 } }
  geometry IndexedFaceSet { ccw TRUE solid FALSE creaseAngle 0.5 coord Coordinate { point [ -0.19685 -0.15748 0.00000, 0.19685 -0.15748 0.00000, 0.19685 0.15748 0.00000, -0.19685 0.15748 0.00000, -0.19685 -0.15748 0.19685, 0.19685 -0.15748 0.19685, 0.19685 0.15748 0.19685, -0.19685 0.15748 0.19685 ] }
    coordIndex [ 0 3 2 1 -1, 4 5 6 7 -1, 0 1 5 4 -1, 1 2 6 5 -1, 2 3 7 6 -1, 3 0 4 7 -1 ] } }
Shape { appearance Appearance { material Material { diffuseColor 0.78 0.78 0.8 specularColor 0.3 0.3 0.3 ambientColor 0.390 0.390 0.400 shininess 0.3 } }
  geometry IndexedFaceSet { ccw TRUE solid FALSE creaseAngle 0.5 coord Coordinate { point [ -0.31496 -0.15748 0.00000, -0.19685 -0.15748 0.00000, -0.19685 0.15748 0.00000, -0.31496 0.15748 0.00000, -0.31496 -0.15748 0.19685, -0.19685 -0.15748 0.19685, -0.19685 0.15748 0.19685, -0.31496 0.15748 0.19685 ] }
    coordIndex [ 0 3 2 1 -1, 4 5 6 7 -1, 0 1 5 4 -1, 1 2 6 5 -1, 2 3 7 6 -1, 3 0 4 7 -1 ] } }
Shape { appearance Appearance { material Material { diffuseColor 0.78 0.78 0.8 specularColor 0.3 0.3 0.3 ambientColor 0.390 0.390 0.400 shininess 0.3 } }
  geometry IndexedFaceSet { ccw TRUE solid FALSE creaseAngle 0.5 coord Coordinate { point [ 0.19685 -0.15748 0.00000, 0.31496 -0.15748 0.00000, 0.31496 0.15748 0.00000, 0.19685 0.15748 0.00000, 0.19685 -0.15748 0.19685, 0.31496 -0.15748 0.19685, 0.31496 0.15748 0.19685, 0.19685 0.15748 0.19685 ] }
    coordIndex [ 0 3 2 1 -1, 4 5 6 7 -1, 0 1 5 4 -1, 1 2 6 5 -1, 2 3 7 6 -1, 3 0 4 7 -1 ] } }
Shape { appearance Appearance { material Material { diffuseColor 0.08 0.08 0.09 specularColor 0.3 0.3 0.3 ambientColor 0.040 0.040 0.045 shininess 0.3 } }
  geometry IndexedFaceSet { ccw TRUE solid FALSE creaseAngle 0.5 coord Coordinate { point [ -0.20079 -0.15748 0.09843, -0.15354 -0.15748 0.09843, -0.15354 0.15748 0.09843, -0.20079 0.15748 0.09843, -0.20079 -0.15748 0.30315, -0.15354 -0.15748 0.30315, -0.15354 0.15748 0.30315, -0.20079 0.15748 0.30315 ] }
    coordIndex [ 0 3 2 1 -1, 4 5 6 7 -1, 0 1 5 4 -1, 1 2 6 5 -1, 2 3 7 6 -1, 3 0 4 7 -1 ] } }
