solid OpenSCAD_Model
  facet normal 0 0 -1
    outer loop
      vertex 6.74489 -4.6853 0
      vertex -6.74489 -4.6853 0
      vertex 12.1449 70.9147 0
    endloop
  endfacet
  facet normal -0 0 1
    outer loop
      vertex -11.2857 70.1147 2.4
      vertex -6 -3.8853 2.4
      vertex 11.2857 70.1147 2.4
    endloop
  endfacet
  facet normal -0.945874 -0.0675622 0.317425
    outer loop
      vertex -11.2857 70.1147 2.4
      vertex -12.1449 70.9147 0.01
      vertex -6 -3.8853 2.4
    endloop
  endfacet
  facet normal -0 0 -1
    outer loop
      vertex 12.1449 70.9147 0
      vertex -6.74489 -4.6853 0
      vertex -12.1449 70.9147 0
    endloop
  endfacet
  facet normal 0 0.948286 0.317418
    outer loop
      vertex 11.2857 70.1147 2.4
      vertex -12.1449 70.9147 0.01
      vertex -11.2857 70.1147 2.4
    endloop
  endfacet
  facet normal 0 -1 0
    outer loop
      vertex 6.74489 -4.6853 0
      vertex -6.74489 -4.6853 0.01
      vertex -6.74489 -4.6853 0
    endloop
  endfacet
  facet normal -0 -1 -0
    outer loop
      vertex 6.74489 -4.6853 0.01
      vertex -6.74489 -4.6853 0.01
      vertex 6.74489 -4.6853 0
    endloop
  endfacet
  facet normal 0.945874 -0.0675622 0.317425
    outer loop
      vertex 6 -3.8853 2.4
      vertex 12.1449 70.9147 0.01
      vertex 11.2857 70.1147 2.4
    endloop
  endfacet
  facet normal -0.997459 -0.0712472 -0
    outer loop
      vertex -6.74489 -4.6853 0.01
      vertex -12.1449 70.9147 0.01
      vertex -6.74489 -4.6853 0
    endloop
  endfacet
  facet normal -0.945877 -0.0675627 0.317416
    outer loop
      vertex -6 -3.8853 2.4
      vertex -12.1449 70.9147 0.01
      vertex -6.74489 -4.6853 0.01
    endloop
  endfacet
  facet normal 0.945877 -0.0675627 0.317416
    outer loop
      vertex 6.74489 -4.6853 0.01
      vertex 12.1449 70.9147 0.01
      vertex 6 -3.8853 2.4
    endloop
  endfacet
  facet normal 0.997459 -0.0712472 0
    outer loop
      vertex 6.74489 -4.6853 0
      vertex 12.1449 70.9147 0.01
      vertex 6.74489 -4.6853 0.01
    endloop
  endfacet
  facet normal 0.997459 -0.0712472 0
    outer loop
      vertex 12.1449 70.9147 0
      vertex 12.1449 70.9147 0.01
      vertex 6.74489 -4.6853 0
    endloop
  endfacet
  facet normal 0 0.948286 0.317418
    outer loop
      vertex 12.1449 70.9147 0.01
      vertex -12.1449 70.9147 0.01
      vertex 11.2857 70.1147 2.4
    endloop
  endfacet
  facet normal 0 0 1
    outer loop
      vertex 11.2857 70.1147 2.4
      vertex -6 -3.8853 2.4
      vertex 6 -3.8853 2.4
    endloop
  endfacet
  facet normal -0.997459 -0.0712472 0
    outer loop
      vertex -6.74489 -4.6853 0
      vertex -12.1449 70.9147 0.01
      vertex -12.1449 70.9147 0
    endloop
  endfacet
  facet normal 0 -0.948286 0.317418
    outer loop
      vertex 6.74489 -4.6853 0.01
      vertex -6 -3.8853 2.4
      vertex -6.74489 -4.6853 0.01
    endloop
  endfacet
  facet normal 0 -0.948286 0.317418
    outer loop
      vertex 6 -3.8853 2.4
      vertex -6 -3.8853 2.4
      vertex 6.74489 -4.6853 0.01
    endloop
  endfacet
  facet normal 0 1 -0
    outer loop
      vertex 12.1449 70.9147 0
      vertex -12.1449 70.9147 0.01
      vertex 12.1449 70.9147 0.01
    endloop
  endfacet
  facet normal 0 1 0
    outer loop
      vertex -12.1449 70.9147 0
      vertex -12.1449 70.9147 0.01
      vertex 12.1449 70.9147 0
    endloop
  endfacet
endsolid OpenSCAD_Model
