solid OpenSCAD_Model
  facet normal -0 1 0
    outer loop
      vertex -5.713 -20.7874 0.01
      vertex 5.713 -20.7874 0.01
      vertex -5.713 -20.7874 0
    endloop
  endfacet
  facet normal -0.993409 0.114624 0
    outer loop
      vertex -9.35915 -52.3874 0
      vertex -5.713 -20.7874 0.01
      vertex -5.713 -20.7874 0
    endloop
  endfacet
  facet normal -0 -0 -1
    outer loop
      vertex 5.713 -20.7874 0
      vertex 9.35915 -52.3874 0
      vertex -5.713 -20.7874 0
    endloop
  endfacet
  facet normal -0.942036 0.108696 0.317418
    outer loop
      vertex -5 -21.5874 2.4
      vertex -5.713 -20.7874 0.01
      vertex -9.35915 -52.3874 0.01
    endloop
  endfacet
  facet normal 0 -0.948286 0.317418
    outer loop
      vertex -9.35915 -52.3874 0.01
      vertex 8.46153 -51.5874 2.4
      vertex -8.46153 -51.5874 2.4
    endloop
  endfacet
  facet normal -0.942035 0.108696 0.31742
    outer loop
      vertex -8.46153 -51.5874 2.4
      vertex -5 -21.5874 2.4
      vertex -9.35915 -52.3874 0.01
    endloop
  endfacet
  facet normal 0 -1 0
    outer loop
      vertex -9.35915 -52.3874 0
      vertex 9.35915 -52.3874 0.01
      vertex -9.35915 -52.3874 0.01
    endloop
  endfacet
  facet normal 0 -0 -1
    outer loop
      vertex -5.713 -20.7874 0
      vertex 9.35915 -52.3874 0
      vertex -9.35915 -52.3874 0
    endloop
  endfacet
  facet normal 0 -0.948286 0.317418
    outer loop
      vertex 9.35915 -52.3874 0.01
      vertex 8.46153 -51.5874 2.4
      vertex -9.35915 -52.3874 0.01
    endloop
  endfacet
  facet normal 0.942035 0.108696 0.31742
    outer loop
      vertex 5 -21.5874 2.4
      vertex 8.46153 -51.5874 2.4
      vertex 9.35915 -52.3874 0.01
    endloop
  endfacet
  facet normal 0.993409 0.114624 -0
    outer loop
      vertex 9.35915 -52.3874 0
      vertex 5.713 -20.7874 0.01
      vertex 9.35915 -52.3874 0.01
    endloop
  endfacet
  facet normal -0.993409 0.114624 0
    outer loop
      vertex -9.35915 -52.3874 0.01
      vertex -5.713 -20.7874 0.01
      vertex -9.35915 -52.3874 0
    endloop
  endfacet
  facet normal 0 -1 0
    outer loop
      vertex 9.35915 -52.3874 0
      vertex 9.35915 -52.3874 0.01
      vertex -9.35915 -52.3874 0
    endloop
  endfacet
  facet normal 0 0.948286 0.317418
    outer loop
      vertex -5 -21.5874 2.4
      vertex 5.713 -20.7874 0.01
      vertex -5.713 -20.7874 0.01
    endloop
  endfacet
  facet normal 0 0.948286 0.317418
    outer loop
      vertex 5 -21.5874 2.4
      vertex 5.713 -20.7874 0.01
      vertex -5 -21.5874 2.4
    endloop
  endfacet
  facet normal 0.942036 0.108696 0.317418
    outer loop
      vertex 9.35915 -52.3874 0.01
      vertex 5.713 -20.7874 0.01
      vertex 5 -21.5874 2.4
    endloop
  endfacet
  facet normal 0.993409 0.114624 -0
    outer loop
      vertex 5.713 -20.7874 0
      vertex 5.713 -20.7874 0.01
      vertex 9.35915 -52.3874 0
    endloop
  endfacet
  facet normal 0 1 0
    outer loop
      vertex -5.713 -20.7874 0
      vertex 5.713 -20.7874 0.01
      vertex 5.713 -20.7874 0
    endloop
  endfacet
  facet normal -0 0 1
    outer loop
      vertex -5 -21.5874 2.4
      vertex 8.46153 -51.5874 2.4
      vertex 5 -21.5874 2.4
    endloop
  endfacet
  facet normal 0 0 1
    outer loop
      vertex -8.46153 -51.5874 2.4
      vertex 8.46153 -51.5874 2.4
      vertex -5 -21.5874 2.4
    endloop
  endfacet
endsolid OpenSCAD_Model
