0
SECTION
2
HEADER
9
$INSUNITS
70
4
0
ENDSEC
0
SECTION
2
TABLES
0
TABLE
2
LTYPE
0
LTYPE
72
65
70
64
2
CONTINUOUS
3
______
73
0
40
0
0
ENDTAB
0
TABLE
2
LAYER
0
ENDTAB
0
ENDSEC
0
SECTION
2
ENTITIES
0
LINE
8
0
10
-9.5
20
-10
11
-9.5
21
62.9
0
LINE
8
0
10
-9.5
20
62.9
11
40
21
62.9
0
LINE
8
0
10
40
20
62.9
11
81.5
21
52.5
0
LINE
8
0
10
81.5
20
52.5
11
81.5
21
0.5
0
LINE
8
0
10
81.5
20
0.5
11
101.910254
21
-11.5957714
0
LINE
8
0
10
101.910254
20
-11.5957714
11
92.910254
21
-27.1842286
0
LINE
8
0
10
92.910254
20
-27.1842286
11
21
21
-26.5
0
LINE
8
0
10
21
20
-26.5
11
-9.5
21
-10
0
ENDSEC
0
EOF