<svg width="103.329mm" height="88.777mm" viewBox="0 0 103.329 88.777" xmlns="http://www.w3.org/2000/svg"><g id="svgGroup" stroke-linecap="round" fill-rule="evenodd" font-size="9pt" stroke="#000" stroke-width="0.25mm" fill="none" style="stroke:#000;stroke-width:0.25mm;fill:none"><path d="M 1 71.4 L 17 71.4 A 1 1 0 0 0 18 70.4 L 18 58.8 A 1 1 0 0 1 19 57.8 L 34 57.8 A 1 1 0 0 0 35 56.8 L 35 52 A 1 1 0 0 1 36 51 L 37.951 51 A 1 1 0 0 1 38.934 51.816 L 44.072 79.22 A 1 1 0 0 0 44.882 80.02 L 94.505 88.762 A 1 1 0 0 0 95.545 88.277 L 103.195 75.027 A 1 1 0 0 0 102.829 73.661 L 91.688 67.229 A 1 1 0 0 1 91.204 66.539 L 86.016 37.487 A 1 1 0 0 1 86 37.311 L 86 12.9 A 1 1 0 0 0 85 11.9 L 70 11.9 A 1 1 0 0 1 69 10.9 L 69 9.5 A 1 1 0 0 0 68 8.5 L 53 8.5 A 1 1 0 0 1 52 7.5 L 52 1 A 1 1 0 0 0 51 0 L 1 0 A 1 1 0 0 0 0 1 L 0 70.4 A 1 1 0 0 0 1 71.4 Z" vector-effect="non-scaling-stroke"/></g></svg>