0
SECTION
2
HEADER
9
$INSUNITS
70
4
0
ENDSEC
0
SECTION
2
TABLES
0
TABLE
2
LTYPE
0
LTYPE
72
65
70
64
2
CONTINUOUS
3
______
73
0
40
0
0
ENDTAB
0
TABLE
2
LAYER
0
ENDTAB
0
ENDSEC
0
SECTION
2
ENTITIES
0
LINE
8
0
10
-9
20
-8.5
11
-8.2369942
21
-8.5
0
LINE
8
0
10
-9
20
-8.5
11
-9
21
61.9
0
LINE
8
0
10
43
20
55.4
11
43
21
61.9
0
LINE
8
0
10
-8
20
62.9
11
42
21
62.9
0
LINE
8
0
10
60
20
52
11
60
21
53.4
0
LINE
8
0
10
59
20
54.4
11
44
21
54.4
0
LINE
8
0
10
76.3853078
20
0
11
77
21
0
0
LINE
8
0
10
77
20
0
11
77
21
50
0
LINE
8
0
10
76
20
51
11
61
21
51
0
LINE
8
0
10
73.7339334
20
-18.7894088
11
85.3285469
21
-25.483562
0
LINE
8
0
10
86.6945723
20
-25.1175366
11
94.1945723
21
-12.1271556
0
LINE
8
0
10
93.8285469
20
-10.7611302
11
79.9721405
21
-2.7611302
0
LINE
8
0
10
78.6061151
20
-3.1271556
11
78.3860004
21
-3.5084054
0
LINE
8
0
10
59.7121918
20
-24.6854861
11
-8.0064487
21
-10.4199591
0
LINE
8
0
10
-8.4483249
20
-8.6798043
11
-8.2369942
21
-8.5
0
LINE
8
0
10
75.5146487
20
-1.4918869
11
76.6493159
21
-3.5002923
0
LINE
8
0
10
72.8083891
20
-18.7504966
11
60.3438707
21
-24.6119001
0
ARC
8
0
10
-7.8003141
20
-9.4414355
40
1
50
130.3917901
51
258.1040739
0
ARC
8
0
10
59.9183264
20
-23.7069625
40
1
50
258.1040739
51
295.1851205
0
ARC
8
0
10
73.2339334
20
-19.6554342
40
1
50
59.9999999
51
115.1851205
0
ARC
8
0
10
85.8285469
20
-24.6175366
40
1
50
239.9999999
51
329.9999999
0
ARC
8
0
10
93.3285469
20
-11.6271556
40
1
50
329.9999999
51
59.9999999
0
ARC
8
0
10
79.4721405
20
-3.6271556
40
1
50
59.9999999
51
149.9999999
0
ARC
8
0
10
77.519975
20
-3.0084054
40
1
50
209.4646778
51
329.9999999
0
ARC
8
0
10
76.3853078
20
-1
40
1
50
90
51
209.4646778
0
ARC
8
0
10
76
20
50
40
1
50
0
51
90
0
ARC
8
0
10
61
20
52
40
1
50
180
51
270
0
ARC
8
0
10
59
20
53.4
40
1
50
0
51
90
0
ARC
8
0
10
44
20
55.4
40
1
50
180
51
270
0
ARC
8
0
10
42
20
61.9
40
1
50
0
51
90
0
ARC
8
0
10
-8
20
61.9
40
1
50
90
51
180
0
ENDSEC
0
EOF