0
SECTION
2
HEADER
9
$INSUNITS
70
4
0
ENDSEC
0
SECTION
2
TABLES
0
TABLE
2
LTYPE
0
LTYPE
72
65
70
64
2
CONTINUOUS
3
______
73
0
40
0
0
ENDTAB
0
TABLE
2
LAYER
0
ENDTAB
0
ENDSEC
0
SECTION
2
ENTITIES
0
LINE
8
0
10
-8.5
20
-8.5
11
-8.1313869
21
-8.5
0
LINE
8
0
10
-9.5
20
-7.5
11
-9.5
21
61.9
0
LINE
8
0
10
45.5
20
54.875
11
45.5
21
59.5
0
LINE
8
0
10
44.5
20
60.5
11
37
21
60.5
0
LINE
8
0
10
63.5
20
52.5
11
63.5
21
52.875
0
LINE
8
0
10
62.5
20
53.875
11
46.5
21
53.875
0
LINE
8
0
10
81.272705
20
0.5
11
81.5
21
0.5
0
LINE
8
0
10
81.5
20
0.5
11
81.5
21
50.5
0
LINE
8
0
10
80.5
20
51.5
11
64.5
21
51.5
0
LINE
8
0
10
73.8521126
20
-21.507724
11
74.1604077
21
-21.5903315
0
LINE
8
0
10
75.3851525
20
-20.8832247
11
75.4878913
21
-20.4997984
0
LINE
8
0
10
79.743065
20
-19.0047982
11
91.8612159
21
-26.0012159
0
LINE
8
0
10
93.2272413
20
-25.6351905
11
100.7272413
21
-12.6448095
0
LINE
8
0
10
100.3612159
20
-11.2787841
11
85.6387841
21
-2.7787841
0
LINE
8
0
10
84.2727587
20
-3.1448095
11
83.8892269
21
-3.8091061
0
LINE
8
0
10
-8.5
20
62.9
11
35
21
62.9
0
LINE
8
0
10
36
20
61.9
11
36
21
61.5
0
LINE
8
0
10
63.9436571
20
-25.6005183
11
33.8509861
21
-19.2516132
0
LINE
8
0
10
7.4216519
20
-13.6755932
11
-7.9332573
21
-10.4360382
0
LINE
8
0
10
-8.3528176
20
-8.6777501
11
-8.1313869
21
-8.5
0
LINE
8
0
10
80.4240021
20
-1.0288699
11
82.1744986
21
-3.837976
0
LINE
8
0
10
73.1748664
20
-21.5653994
11
64.5685184
21
-25.5303082
0
LINE
8
0
10
78.8246378
20
-18.9625732
11
75.4878913
21
-20.4997984
0
ARC
8
0
10
22
20
-10
40
14.5
50
197.4733118
51
318.6997645
0
ARC
8
0
10
-7.7268232
20
-9.4575777
40
1
50
128.7552093
51
258.0865371
0
ARC
8
0
10
7.2152178
20
-14.6540537
40
1
50
17.4733118
51
78.0865371
0
ARC
8
0
10
33.644552
20
-20.2300737
40
1
50
78.0865371
51
138.6997645
0
ARC
8
0
10
64.1500912
20
-24.6220578
40
1
50
258.0865371
51
294.7353283
0
ARC
8
0
10
73.5932936
20
-22.4736498
40
1
50
75.0000021
51
114.7353283
0
ARC
8
0
10
74.4192267
20
-20.6244057
40
1
50
255.0000021
51
345.0000021
0
ARC
8
0
10
79.243065
20
-19.8708236
40
1
50
59.9999999
51
114.7353283
0
ARC
8
0
10
92.3612159
20
-25.1351905
40
1
50
239.9999999
51
329.9999999
0
ARC
8
0
10
99.8612159
20
-12.1448095
40
1
50
329.9999999
51
59.9999999
0
ARC
8
0
10
85.1387841
20
-3.6448095
40
1
50
59.9999999
51
149.9999999
0
ARC
8
0
10
83.0232015
20
-3.3091061
40
1
50
211.9291306
51
329.9999999
0
ARC
8
0
10
81.272705
20
-0.5
40
1
50
90
51
211.9291306
0
ARC
8
0
10
80.5
20
50.5
40
1
50
0
51
90
0
ARC
8
0
10
64.5
20
52.5
40
1
50
180
51
270
0
ARC
8
0
10
62.5
20
52.875
40
1
50
0
51
90
0
ARC
8
0
10
46.5
20
54.875
40
1
50
180
51
270
0
ARC
8
0
10
44.5
20
59.5
40
1
50
0
51
90
0
ARC
8
0
10
37
20
61.5
40
1
50
180
51
270
0
ARC
8
0
10
35
20
61.9
40
1
50
0
51
90
0
ARC
8
0
10
-8.5
20
61.9
40
1
50
90
51
180
0
ARC
8
0
10
-8.5
20
-7.5
40
1
50
180
51
270
0
ENDSEC
0
EOF