0
SECTION
2
HEADER
9
$INSUNITS
70
4
0
ENDSEC
0
SECTION
2
TABLES
0
TABLE
2
LTYPE
0
LTYPE
72
65
70
64
2
CONTINUOUS
3
______
73
0
40
0
0
ENDTAB
0
TABLE
2
LAYER
0
ENDTAB
0
ENDSEC
0
SECTION
2
ENTITIES
0
LINE
8
0
10
-9.5
20
-8.2120903
11
-9.5
21
59.9
0
LINE
8
0
10
-6.5
20
62.9
11
39.6298197
21
62.9
0
LINE
8
0
10
40.3590764
20
62.8100146
11
79.2292568
21
53.0690537
0
LINE
8
0
10
81.5
20
50.1590391
11
81.5
21
2.2093541
0
LINE
8
0
10
82.9705174
20
-0.3714758
11
99.3586422
21
-10.0836044
0
LINE
8
0
10
100.4272358
20
-14.1644343
11
93.7858204
21
-25.6677031
0
LINE
8
0
10
91.1592004
20
-27.1675673
11
21.7442671
21
-26.5070817
0
LINE
8
0
10
20.345355
20
-26.1458478
11
-7.9274558
21
-10.8507206
0
ARC
8
0
10
-6.5
20
59.9
40
3
50
90
51
180
0
ARC
8
0
10
39.6298197
20
59.9
40
3
50
75.931274
51
90
0
ARC
8
0
10
78.5
20
50.1590391
40
3
50
0
51
75.931274
0
ARC
8
0
10
84.5
20
2.2093541
40
3
50
180
51
239.3476582
0
ARC
8
0
10
97.8291596
20
-12.6644343
40
3
50
329.9999999
51
59.3476582
0
ARC
8
0
10
91.1877442
20
-24.1677031
40
3
50
269.4548453
51
329.9999999
0
ARC
8
0
10
21.7728109
20
-23.5072175
40
3
50
241.5873366
51
269.4548453
0
ARC
8
0
10
-6.5
20
-8.2120903
40
3
50
180
51
241.5873366
0
ENDSEC
0
EOF