0
SECTION
2
HEADER
9
$INSUNITS
70
4
0
ENDSEC
0
SECTION
2
TABLES
0
TABLE
2
LTYPE
0
LTYPE
72
65
70
64
2
CONTINUOUS
3
______
73
0
40
0
0
ENDTAB
0
TABLE
2
LAYER
0
ENDTAB
0
ENDSEC
0
SECTION
2
ENTITIES
0
LINE
8
0
10
-9
20
-8.5
11
-8.2369942
21
-8.5
0
LINE
8
0
10
-9
20
-8.5
11
-9
21
61.9
0
LINE
8
0
10
43
20
55.4
11
43
21
61.9
0
LINE
8
0
10
-8
20
62.9
11
42
21
62.9
0
LINE
8
0
10
60
20
52
11
60
21
53.4
0
LINE
8
0
10
59
20
54.4
11
44
21
54.4
0
LINE
8
0
10
75.5807655
20
0
11
76
21
0
0
LINE
8
0
10
77
20
1
11
77
21
50
0
LINE
8
0
10
76
20
51
11
61
21
51
0
LINE
8
0
10
73.5784418
20
-20.2935444
11
84.5455004
21
-27.9727616
0
LINE
8
0
10
85.9382288
20
-27.727186
11
94.5418754
21
-15.4399053
0
LINE
8
0
10
94.2962998
20
-14.0471769
11
81.189867
21
-4.8699538
0
LINE
8
0
10
79.7971386
20
-5.1155294
11
78.9760451
21
-6.2881725
0
LINE
8
0
10
59.1330374
20
-24.9810308
11
33.6683351
21
-19.4628661
0
LINE
8
0
10
7.4611307
20
-13.7838022
11
-8.0233602
21
-10.428335
0
LINE
8
0
10
-8.4595879
20
-8.6893871
11
-8.2369942
21
-8.5
0
LINE
8
0
10
74.7032246
20
-1.4795018
11
77.2793522
21
-6.1940979
0
LINE
8
0
10
72.659811
20
-20.1741137
11
59.6898749
21
-24.9422968
0
ARC
8
0
10
22
20
-10
40
14.5
50
197.8887015
51
317.6575608
0
ARC
8
0
10
-7.8115771
20
-9.4510183
40
1
50
130.3917901
51
257.7731331
0
ARC
8
0
10
7.2493476
20
-14.7611189
40
1
50
17.8887015
51
77.7731331
0
ARC
8
0
10
33.456552
20
-20.4401827
40
1
50
77.7731331
51
137.6575608
0
ARC
8
0
10
59.3448205
20
-24.0037141
40
1
50
257.7731331
51
290.1851163
0
ARC
8
0
10
73.0048654
20
-21.1126964
40
1
50
55.0000003
51
110.1851163
0
ARC
8
0
10
85.1190768
20
-27.1536096
40
1
50
235.0000003
51
325.0000003
0
ARC
8
0
10
93.7227234
20
-14.8663289
40
1
50
325.0000003
51
55.0000003
0
ARC
8
0
10
80.6162906
20
-5.6891058
40
1
50
55.0000003
51
145.0000003
0
ARC
8
0
10
78.1568931
20
-5.7145961
40
1
50
208.6528687
51
325.0000003
0
ARC
8
0
10
75.5807655
20
-1
40
1
50
90
51
208.6528687
0
ARC
8
0
10
76
20
1
40
1
50
270
51
0
0
ARC
8
0
10
76
20
50
40
1
50
0
51
90
0
ARC
8
0
10
61
20
52
40
1
50
180
51
270
0
ARC
8
0
10
59
20
53.4
40
1
50
0
51
90
0
ARC
8
0
10
44
20
55.4
40
1
50
180
51
270
0
ARC
8
0
10
42
20
61.9
40
1
50
0
51
90
0
ARC
8
0
10
-8
20
61.9
40
1
50
90
51
180
0
ENDSEC
0
EOF