0
SECTION
2
HEADER
9
$INSUNITS
70
4
0
ENDSEC
0
SECTION
2
TABLES
0
TABLE
2
LTYPE
0
LTYPE
72
65
70
64
2
CONTINUOUS
3
______
73
0
40
0
0
ENDTAB
0
TABLE
2
LAYER
0
ENDTAB
0
ENDSEC
0
SECTION
2
ENTITIES
0
LINE
8
0
10
-8
20
-7
11
-8
21
41
0
LINE
8
0
10
-7
20
42
11
9
21
42
0
LINE
8
0
10
10
20
43
11
10
21
53
0
LINE
8
0
10
11
20
54
11
27
21
54
0
LINE
8
0
10
28
20
55
11
28
21
59
0
LINE
8
0
10
29
20
60
11
43
21
60
0
LINE
8
0
10
44
20
59
11
44
21
54.375
0
LINE
8
0
10
45
20
53.375
11
61
21
53.375
0
LINE
8
0
10
62
20
52.375
11
62
21
52
0
LINE
8
0
10
63
20
51
11
79.1413801
21
51
0
LINE
8
0
10
80.1298742
20
50.1512593
11
88.7709791
21
-6.3192085
0
LINE
8
0
10
91.4362818
20
-23.7372233
11
91.4497694
21
-23.8253657
0
LINE
8
0
10
90.2146417
20
-24.9457338
11
58.7464551
21
-16.9372307
0
LINE
8
0
10
58.1398135
20
-16.4895827
11
55.1
21
-11.5154844
0
LINE
8
0
10
49.0342532
20
-1.59
11
46.1467248
21
3.1349117
0
LINE
8
0
10
46
20
3.6563725
11
46
21
9
0
LINE
8
0
10
45
20
10
11
27
21
10
0
LINE
8
0
10
26
20
9
11
26
21
5
0
LINE
8
0
10
25
20
4
11
9
21
4
0
LINE
8
0
10
8
20
3
11
8
21
-7
0
LINE
8
0
10
7
20
-8
11
-7
21
-8
0
ARC
8
0
10
-7
20
41
40
1
50
90
51
180
0
ARC
8
0
10
9
20
43
40
1
50
270
51
0
0
ARC
8
0
10
11
20
53
40
1
50
90
51
180
0
ARC
8
0
10
27
20
55
40
1
50
270
51
0
0
ARC
8
0
10
29
20
59
40
1
50
90
51
180
0
ARC
8
0
10
43
20
59
40
1
50
0
51
90
0
ARC
8
0
10
45
20
54.375
40
1
50
180
51
270
0
ARC
8
0
10
61
20
52.375
40
1
50
0
51
90
0
ARC
8
0
10
63
20
52
40
1
50
180
51
270
0
ARC
8
0
10
79.1413801
20
50
40
1
50
8.6999121
51
90
0
ARC
8
0
10
90.4612753
20
-23.976625
40
1
50
255.721605
51
8.6999121
0
ARC
8
0
10
58.9930887
20
-15.9681219
40
1
50
211.4302914
51
255.721605
0
ARC
8
0
10
47
20
3.6563725
40
1
50
180
51
211.4302914
0
ARC
8
0
10
45
20
9
40
1
50
0
51
90
0
ARC
8
0
10
27
20
9
40
1
50
90
51
180
0
ARC
8
0
10
25
20
5
40
1
50
270
51
0
0
ARC
8
0
10
9
20
3
40
1
50
90
51
180
0
ARC
8
0
10
7
20
-7
40
1
50
270
51
0
0
ARC
8
0
10
-7
20
-7
40
1
50
180
51
270
0
LINE
8
0
10
-7
20
-7
11
7
21
-7
0
LINE
8
0
10
7
20
-7
11
7
21
7
0
LINE
8
0
10
7
20
7
11
-7
21
7
0
LINE
8
0
10
-7
20
7
11
-7
21
-7
0
LINE
8
0
10
-7
20
10
11
7
21
10
0
LINE
8
0
10
7
20
10
11
7
21
24
0
LINE
8
0
10
7
20
24
11
-7
21
24
0
LINE
8
0
10
-7
20
24
11
-7
21
10
0
LINE
8
0
10
-7
20
27
11
7
21
27
0
LINE
8
0
10
7
20
27
11
7
21
41
0
LINE
8
0
10
7
20
41
11
-7
21
41
0
LINE
8
0
10
-7
20
41
11
-7
21
27
0
LINE
8
0
10
11
20
5
11
25
21
5
0
LINE
8
0
10
25
20
5
11
25
21
19
0
LINE
8
0
10
25
20
19
11
11
21
19
0
LINE
8
0
10
11
20
19
11
11
21
5
0
LINE
8
0
10
11
20
22
11
25
21
22
0
LINE
8
0
10
25
20
22
11
25
21
36
0
LINE
8
0
10
25
20
36
11
11
21
36
0
LINE
8
0
10
11
20
36
11
11
21
22
0
LINE
8
0
10
11
20
39
11
25
21
39
0
LINE
8
0
10
25
20
39
11
25
21
53
0
LINE
8
0
10
25
20
53
11
11
21
53
0
LINE
8
0
10
11
20
53
11
11
21
39
0
LINE
8
0
10
29
20
11
11
43
21
11
0
LINE
8
0
10
43
20
11
11
43
21
25
0
LINE
8
0
10
43
20
25
11
29
21
25
0
LINE
8
0
10
29
20
25
11
29
21
11
0
LINE
8
0
10
29
20
28
11
43
21
28
0
LINE
8
0
10
43
20
28
11
43
21
42
0
LINE
8
0
10
43
20
42
11
29
21
42
0
LINE
8
0
10
29
20
42
11
29
21
28
0
LINE
8
0
10
29
20
45
11
43
21
45
0
LINE
8
0
10
43
20
45
11
43
21
59
0
LINE
8
0
10
43
20
59
11
29
21
59
0
LINE
8
0
10
29
20
59
11
29
21
45
0
LINE
8
0
10
47
20
4.375
11
61
21
4.375
0
LINE
8
0
10
61
20
4.375
11
61
21
18.375
0
LINE
8
0
10
61
20
18.375
11
47
21
18.375
0
LINE
8
0
10
47
20
18.375
11
47
21
4.375
0
LINE
8
0
10
47
20
21.375
11
61
21
21.375
0
LINE
8
0
10
61
20
21.375
11
61
21
35.375
0
LINE
8
0
10
61
20
35.375
11
47
21
35.375
0
LINE
8
0
10
47
20
35.375
11
47
21
21.375
0
LINE
8
0
10
47
20
38.375
11
61
21
38.375
0
LINE
8
0
10
61
20
38.375
11
61
21
52.375
0
LINE
8
0
10
61
20
52.375
11
47
21
52.375
0
LINE
8
0
10
47
20
52.375
11
47
21
38.375
0
LINE
8
0
10
65
20
2
11
79
21
2
0
LINE
8
0
10
79
20
2
11
79
21
16
0
LINE
8
0
10
79
20
16
11
65
21
16
0
LINE
8
0
10
65
20
16
11
65
21
2
0
LINE
8
0
10
65
20
19
11
79
21
19
0
LINE
8
0
10
79
20
19
11
79
21
33
0
LINE
8
0
10
79
20
33
11
65
21
33
0
LINE
8
0
10
65
20
33
11
65
21
19
0
LINE
8
0
10
65
20
36
11
79
21
36
0
LINE
8
0
10
79
20
36
11
79
21
50
0
LINE
8
0
10
79
20
50
11
65
21
50
0
LINE
8
0
10
65
20
50
11
65
21
36
0
LINE
8
0
10
55.1
20
-11.5154844
11
55.1
21
-1.59
0
LINE
8
0
10
55.1
20
-1.59
11
49.0342532
21
-1.59
0
LINE
8
0
10
59.5767859
20
-16.1297475
11
73.0997475
21
-19.7532141
0
LINE
8
0
10
73.0997475
20
-19.7532141
11
76.7232141
21
-6.2302525
0
LINE
8
0
10
76.7232141
20
-6.2302525
11
63.2002525
21
-2.6067859
0
LINE
8
0
10
63.2002525
20
-2.6067859
11
59.5767859
21
-16.1297475
0
LINE
8
0
10
79.1878222
20
-16.9521778
11
91.3121778
21
-23.9521778
0
LINE
8
0
10
91.3121778
20
-23.9521778
11
91.4362818
21
-23.7372233
0
LINE
8
0
10
88.7709791
20
-6.3192085
11
86.1878222
21
-4.8278222
0
LINE
8
0
10
86.1878222
20
-4.8278222
11
79.1878222
21
-16.9521778
0
ENDSEC
0
EOF