0
SECTION
2
HEADER
9
$INSUNITS
70
4
0
ENDSEC
0
SECTION
2
TABLES
0
TABLE
2
LTYPE
0
LTYPE
72
65
70
64
2
CONTINUOUS
3
______
73
0
40
0
0
ENDTAB
0
TABLE
2
LAYER
0
ENDTAB
0
ENDSEC
0
SECTION
2
ENTITIES
0
LINE
8
0
10
-8
20
-7
11
-8
21
41
0
LINE
8
0
10
-7
20
42
11
8
21
42
0
LINE
8
0
10
9
20
43
11
9
21
54.6
0
LINE
8
0
10
10
20
55.6
11
25
21
55.6
0
LINE
8
0
10
26
20
56.6
11
26
21
61.4
0
LINE
8
0
10
27
20
62.4
11
41
21
62.4
0
LINE
8
0
10
42
20
61.4
11
42
21
54.9
0
LINE
8
0
10
43
20
53.9
11
58
21
53.9
0
LINE
8
0
10
59
20
52.9
11
59
21
51.5
0
LINE
8
0
10
60
20
50.5
11
75.1067625
21
50.5
0
LINE
8
0
10
76.1004227
20
49.6124255
11
82.5822008
21
-7.6760383
0
LINE
8
0
10
83.3167283
20
-27.0140275
11
53.8671168
21
-16.3430623
0
LINE
8
0
10
53.3213656
20
-15.8657561
11
51.2
21
-11.8032709
0
LINE
8
0
10
45.8197947
20
-1.5
11
43.113577
21
3.6824963
0
LINE
8
0
10
43
20
4.1453724
11
43
21
11.4
0
LINE
8
0
10
42
20
12.4
11
26
21
12.4
0
LINE
8
0
10
25
20
11.4
11
25
21
6.6
0
LINE
8
0
10
24
20
5.6
11
9
21
5.6
0
LINE
8
0
10
8
20
4.6
11
8
21
-7
0
LINE
8
0
10
7
20
-8
11
-7
21
-8
0
ARC
8
0
10
-7
20
41
40
1
50
90
51
180
0
ARC
8
0
10
8
20
43
40
1
50
270
51
0
0
ARC
8
0
10
10
20
54.6
40
1
50
90
51
180
0
ARC
8
0
10
25
20
56.6
40
1
50
270
51
0
0
ARC
8
0
10
27
20
61.4
40
1
50
90
51
180
0
ARC
8
0
10
41
20
61.4
40
1
50
0
51
90
0
ARC
8
0
10
43
20
54.9
40
1
50
180
51
270
0
ARC
8
0
10
58
20
52.9
40
1
50
0
51
90
0
ARC
8
0
10
60
20
51.5
40
1
50
180
51
270
0
ARC
8
0
10
75.1067625
20
49.5
40
1
50
6.4551537
51
90
0
ARC
8
0
10
83.6574001
20
-26.0738452
40
1
50
250.0821913
51
360.2478795
0
ARC
8
0
10
54.2077886
20
-15.40288
40
1
50
207.572853
51
250.0821913
0
ARC
8
0
10
44
20
4.1453724
40
1
50
180
51
207.572853
0
ARC
8
0
10
42
20
11.4
40
1
50
0
51
90
0
ARC
8
0
10
26
20
11.4
40
1
50
90
51
180
0
ARC
8
0
10
24
20
6.6
40
1
50
270
51
0
0
ARC
8
0
10
9
20
4.6
40
1
50
90
51
180
0
ARC
8
0
10
7
20
-7
40
1
50
270
51
0
0
ARC
8
0
10
-7
20
-7
40
1
50
180
51
270
0
LINE
8
0
10
-7
20
-7
11
7
21
-7
0
LINE
8
0
10
7
20
-7
11
7
21
7
0
LINE
8
0
10
7
20
7
11
-7
21
7
0
LINE
8
0
10
-7
20
7
11
-7
21
-7
0
LINE
8
0
10
-7
20
10
11
7
21
10
0
LINE
8
0
10
7
20
10
11
7
21
24
0
LINE
8
0
10
7
20
24
11
-7
21
24
0
LINE
8
0
10
-7
20
24
11
-7
21
10
0
LINE
8
0
10
-7
20
27
11
7
21
27
0
LINE
8
0
10
7
20
27
11
7
21
41
0
LINE
8
0
10
7
20
41
11
-7
21
41
0
LINE
8
0
10
-7
20
41
11
-7
21
27
0
LINE
8
0
10
10
20
6.6
11
24
21
6.6
0
LINE
8
0
10
24
20
6.6
11
24
21
20.6
0
LINE
8
0
10
24
20
20.6
11
10
21
20.6
0
LINE
8
0
10
10
20
20.6
11
10
21
6.6
0
LINE
8
0
10
10
20
23.6
11
24
21
23.6
0
LINE
8
0
10
24
20
23.6
11
24
21
37.6
0
LINE
8
0
10
24
20
37.6
11
10
21
37.6
0
LINE
8
0
10
10
20
37.6
11
10
21
23.6
0
LINE
8
0
10
10
20
40.6
11
24
21
40.6
0
LINE
8
0
10
24
20
40.6
11
24
21
54.6
0
LINE
8
0
10
24
20
54.6
11
10
21
54.6
0
LINE
8
0
10
10
20
54.6
11
10
21
40.6
0
LINE
8
0
10
27
20
13.4
11
41
21
13.4
0
LINE
8
0
10
41
20
13.4
11
41
21
27.4
0
LINE
8
0
10
41
20
27.4
11
27
21
27.4
0
LINE
8
0
10
27
20
27.4
11
27
21
13.4
0
LINE
8
0
10
27
20
30.4
11
41
21
30.4
0
LINE
8
0
10
41
20
30.4
11
41
21
44.4
0
LINE
8
0
10
41
20
44.4
11
27
21
44.4
0
LINE
8
0
10
27
20
44.4
11
27
21
30.4
0
LINE
8
0
10
27
20
47.4
11
41
21
47.4
0
LINE
8
0
10
41
20
47.4
11
41
21
61.4
0
LINE
8
0
10
41
20
61.4
11
27
21
61.4
0
LINE
8
0
10
27
20
61.4
11
27
21
47.4
0
LINE
8
0
10
44
20
4.9
11
58
21
4.9
0
LINE
8
0
10
58
20
4.9
11
58
21
18.9
0
LINE
8
0
10
58
20
18.9
11
44
21
18.9
0
LINE
8
0
10
44
20
18.9
11
44
21
4.9
0
LINE
8
0
10
44
20
21.9
11
58
21
21.9
0
LINE
8
0
10
58
20
21.9
11
58
21
35.9
0
LINE
8
0
10
58
20
35.9
11
44
21
35.9
0
LINE
8
0
10
44
20
35.9
11
44
21
21.9
0
LINE
8
0
10
44
20
38.9
11
58
21
38.9
0
LINE
8
0
10
58
20
38.9
11
58
21
52.9
0
LINE
8
0
10
58
20
52.9
11
44
21
52.9
0
LINE
8
0
10
44
20
52.9
11
44
21
38.9
0
LINE
8
0
10
61
20
1.5
11
75
21
1.5
0
LINE
8
0
10
75
20
1.5
11
75
21
15.5
0
LINE
8
0
10
75
20
15.5
11
61
21
15.5
0
LINE
8
0
10
61
20
15.5
11
61
21
1.5
0
LINE
8
0
10
61
20
18.5
11
75
21
18.5
0
LINE
8
0
10
75
20
18.5
11
75
21
32.5
0
LINE
8
0
10
75
20
32.5
11
61
21
32.5
0
LINE
8
0
10
61
20
32.5
11
61
21
18.5
0
LINE
8
0
10
61
20
35.5
11
75
21
35.5
0
LINE
8
0
10
75
20
35.5
11
75
21
49.5
0
LINE
8
0
10
75
20
49.5
11
61
21
49.5
0
LINE
8
0
10
61
20
49.5
11
61
21
35.5
0
LINE
8
0
10
51.2
20
-11.8032709
11
51.2
21
-1.5
0
LINE
8
0
10
51.2
20
-1.5
11
45.8197947
21
-1.5
0
LINE
8
0
10
54.7261566
20
-15.5034436
11
68.2491182
21
-19.1269102
0
LINE
8
0
10
68.2491182
20
-19.1269102
11
71.8725848
21
-5.6039486
0
LINE
8
0
10
71.8725848
20
-5.6039486
11
58.3496232
21
-1.980482
0
LINE
8
0
10
58.3496232
20
-1.980482
11
54.7261566
21
-15.5034436
0
LINE
8
0
10
73.1185843
20
-18.140387
11
84.586713
21
-26.1704571
0
LINE
8
0
10
84.586713
20
-26.1704571
11
84.6573907
21
-26.0695189
0
LINE
8
0
10
82.5822008
20
-7.6760383
11
81.1486544
21
-6.6722583
0
LINE
8
0
10
81.1486544
20
-6.6722583
11
73.1185843
21
-18.140387
0
ENDSEC
0
EOF