0
SECTION
2
HEADER
9
$INSUNITS
70
4
0
ENDSEC
0
SECTION
2
TABLES
0
TABLE
2
LTYPE
0
LTYPE
72
65
70
64
2
CONTINUOUS
3
______
73
0
40
0
0
ENDTAB
0
TABLE
2
LAYER
0
ENDTAB
0
ENDSEC
0
SECTION
2
ENTITIES
0
LINE
8
0
10
-8
20
-7
11
-8
21
41
0
LINE
8
0
10
-7
20
42
11
8
21
42
0
LINE
8
0
10
9
20
43
11
9
21
54.6
0
LINE
8
0
10
10
20
55.6
11
25
21
55.6
0
LINE
8
0
10
26
20
56.6
11
26
21
61.4
0
LINE
8
0
10
27
20
62.4
11
41
21
62.4
0
LINE
8
0
10
42
20
61.4
11
42
21
54.9
0
LINE
8
0
10
43
20
53.9
11
58
21
53.9
0
LINE
8
0
10
59
20
52.9
11
59
21
51.5
0
LINE
8
0
10
60
20
50.5
11
75.1187783
21
50.5
0
LINE
8
0
10
76.1108369
20
49.6257765
11
83.2091608
21
-6.3620755
0
LINE
8
0
10
85.3706364
20
-23.4106608
11
85.3915713
21
-23.5757841
0
LINE
8
0
10
84.1420795
20
-24.6678567
11
53.808556
21
-16.5866331
0
LINE
8
0
10
53.1749386
20
-16.0742409
11
51.2
21
-12.1972741
0
LINE
8
0
10
45.7507763
20
-1.5
11
43.1089494
21
3.6861234
0
LINE
8
0
10
43
20
4.1400273
11
43
21
11.4
0
LINE
8
0
10
42
20
12.4
11
26
21
12.4
0
LINE
8
0
10
25
20
11.4
11
25
21
6.6
0
LINE
8
0
10
24
20
5.6
11
9
21
5.6
0
LINE
8
0
10
8
20
4.6
11
8
21
-7
0
LINE
8
0
10
7
20
-8
11
-7
21
-8
0
ARC
8
0
10
-7
20
41
40
1
50
90
51
180
0
ARC
8
0
10
8
20
43
40
1
50
270
51
0
0
ARC
8
0
10
10
20
54.6
40
1
50
90
51
180
0
ARC
8
0
10
25
20
56.6
40
1
50
270
51
0
0
ARC
8
0
10
27
20
61.4
40
1
50
90
51
180
0
ARC
8
0
10
41
20
61.4
40
1
50
0
51
90
0
ARC
8
0
10
43
20
54.9
40
1
50
180
51
270
0
ARC
8
0
10
58
20
52.9
40
1
50
0
51
90
0
ARC
8
0
10
60
20
51.5
40
1
50
180
51
270
0
ARC
8
0
10
75.1187783
20
49.5
40
1
50
7.2255999
51
90
0
ARC
8
0
10
84.3995127
20
-23.7015606
40
1
50
255.0821884
51
7.2255999
0
ARC
8
0
10
54.0659892
20
-15.620337
40
1
50
206.9944325
51
255.0821884
0
ARC
8
0
10
44
20
4.1400273
40
1
50
180
51
206.9944325
0
ARC
8
0
10
42
20
11.4
40
1
50
0
51
90
0
ARC
8
0
10
26
20
11.4
40
1
50
90
51
180
0
ARC
8
0
10
24
20
6.6
40
1
50
270
51
0
0
ARC
8
0
10
9
20
4.6
40
1
50
90
51
180
0
ARC
8
0
10
7
20
-7
40
1
50
270
51
0
0
ARC
8
0
10
-7
20
-7
40
1
50
180
51
270
0
LINE
8
0
10
-7
20
-7
11
7
21
-7
0
LINE
8
0
10
7
20
-7
11
7
21
7
0
LINE
8
0
10
7
20
7
11
-7
21
7
0
LINE
8
0
10
-7
20
7
11
-7
21
-7
0
LINE
8
0
10
-7
20
10
11
7
21
10
0
LINE
8
0
10
7
20
10
11
7
21
24
0
LINE
8
0
10
7
20
24
11
-7
21
24
0
LINE
8
0
10
-7
20
24
11
-7
21
10
0
LINE
8
0
10
-7
20
27
11
7
21
27
0
LINE
8
0
10
7
20
27
11
7
21
41
0
LINE
8
0
10
7
20
41
11
-7
21
41
0
LINE
8
0
10
-7
20
41
11
-7
21
27
0
LINE
8
0
10
10
20
6.6
11
24
21
6.6
0
LINE
8
0
10
24
20
6.6
11
24
21
20.6
0
LINE
8
0
10
24
20
20.6
11
10
21
20.6
0
LINE
8
0
10
10
20
20.6
11
10
21
6.6
0
LINE
8
0
10
10
20
23.6
11
24
21
23.6
0
LINE
8
0
10
24
20
23.6
11
24
21
37.6
0
LINE
8
0
10
24
20
37.6
11
10
21
37.6
0
LINE
8
0
10
10
20
37.6
11
10
21
23.6
0
LINE
8
0
10
10
20
40.6
11
24
21
40.6
0
LINE
8
0
10
24
20
40.6
11
24
21
54.6
0
LINE
8
0
10
24
20
54.6
11
10
21
54.6
0
LINE
8
0
10
10
20
54.6
11
10
21
40.6
0
LINE
8
0
10
27
20
13.4
11
41
21
13.4
0
LINE
8
0
10
41
20
13.4
11
41
21
27.4
0
LINE
8
0
10
41
20
27.4
11
27
21
27.4
0
LINE
8
0
10
27
20
27.4
11
27
21
13.4
0
LINE
8
0
10
27
20
30.4
11
41
21
30.4
0
LINE
8
0
10
41
20
30.4
11
41
21
44.4
0
LINE
8
0
10
41
20
44.4
11
27
21
44.4
0
LINE
8
0
10
27
20
44.4
11
27
21
30.4
0
LINE
8
0
10
27
20
47.4
11
41
21
47.4
0
LINE
8
0
10
41
20
47.4
11
41
21
61.4
0
LINE
8
0
10
41
20
61.4
11
27
21
61.4
0
LINE
8
0
10
27
20
61.4
11
27
21
47.4
0
LINE
8
0
10
44
20
4.9
11
58
21
4.9
0
LINE
8
0
10
58
20
4.9
11
58
21
18.9
0
LINE
8
0
10
58
20
18.9
11
44
21
18.9
0
LINE
8
0
10
44
20
18.9
11
44
21
4.9
0
LINE
8
0
10
44
20
21.9
11
58
21
21.9
0
LINE
8
0
10
58
20
21.9
11
58
21
35.9
0
LINE
8
0
10
58
20
35.9
11
44
21
35.9
0
LINE
8
0
10
44
20
35.9
11
44
21
21.9
0
LINE
8
0
10
44
20
38.9
11
58
21
38.9
0
LINE
8
0
10
58
20
38.9
11
58
21
52.9
0
LINE
8
0
10
58
20
52.9
11
44
21
52.9
0
LINE
8
0
10
44
20
52.9
11
44
21
38.9
0
LINE
8
0
10
61
20
1.5
11
75
21
1.5
0
LINE
8
0
10
75
20
1.5
11
75
21
15.5
0
LINE
8
0
10
75
20
15.5
11
61
21
15.5
0
LINE
8
0
10
61
20
15.5
11
61
21
1.5
0
LINE
8
0
10
61
20
18.5
11
75
21
18.5
0
LINE
8
0
10
75
20
18.5
11
75
21
32.5
0
LINE
8
0
10
75
20
32.5
11
61
21
32.5
0
LINE
8
0
10
61
20
32.5
11
61
21
18.5
0
LINE
8
0
10
61
20
35.5
11
75
21
35.5
0
LINE
8
0
10
75
20
35.5
11
75
21
49.5
0
LINE
8
0
10
75
20
49.5
11
61
21
49.5
0
LINE
8
0
10
61
20
49.5
11
61
21
35.5
0
LINE
8
0
10
51.2
20
-12.1972741
11
51.2
21
-1.5
0
LINE
8
0
10
51.2
20
-1.5
11
45.7507763
21
-1.5
0
LINE
8
0
10
54.5359022
20
-15.6606206
11
68.3232107
21
-18.0916951
0
LINE
8
0
10
68.3232107
20
-18.0916951
11
70.7542852
21
-4.3043866
0
LINE
8
0
10
70.7542852
20
-4.3043866
11
56.9669767
21
-1.8733121
0
LINE
8
0
10
56.9669767
20
-1.8733121
11
54.5359022
21
-15.6606206
0
LINE
8
0
10
73.0881659
20
-16.6845239
11
85.2125215
21
-23.6845239
0
LINE
8
0
10
85.2125215
20
-23.6845239
11
85.3706364
21
-23.4106608
0
LINE
8
0
10
83.2091608
20
-6.3620755
11
80.0881659
21
-4.5601683
0
LINE
8
0
10
80.0881659
20
-4.5601683
11
73.0881659
21
-16.6845239
0
ENDSEC
0
EOF