0
SECTION
2
HEADER
9
$INSUNITS
70
4
0
ENDSEC
0
SECTION
2
TABLES
0
TABLE
2
LTYPE
0
LTYPE
72
65
70
64
2
CONTINUOUS
3
______
73
0
40
0
0
ENDTAB
0
TABLE
2
LAYER
0
ENDTAB
0
ENDSEC
0
SECTION
2
ENTITIES
0
LINE
8
0
10
-8
20
-8
11
-8
21
42
0
LINE
8
0
10
-8
20
42
11
9
21
42
0
LINE
8
0
10
9
20
42
11
9
21
55.6
0
LINE
8
0
10
9
20
55.6
11
26
21
55.6
0
LINE
8
0
10
26
20
55.6
11
26
21
62.4
0
LINE
8
0
10
26
20
62.4
11
42
21
62.4
0
LINE
8
0
10
42
20
62.4
11
42
21
53.9
0
LINE
8
0
10
42
20
53.9
11
59
21
53.9
0
LINE
8
0
10
59
20
53.9
11
59
21
50.5
0
LINE
8
0
10
59
20
50.5
11
76
21
50.5
0
LINE
8
0
10
76
20
50.5
11
84.8322886
21
-27.5631855
0
LINE
8
0
10
84.8322886
20
-27.5631855
11
53.5014117
21
-16.2105503
0
LINE
8
0
10
53.5014117
20
-16.2105503
11
43
21
3.9
0
LINE
8
0
10
43
20
3.9
11
43
21
12.4
0
LINE
8
0
10
43
20
12.4
11
25
21
12.4
0
LINE
8
0
10
25
20
12.4
11
25
21
5.6
0
LINE
8
0
10
25
20
5.6
11
8
21
5.6
0
LINE
8
0
10
8
20
5.6
11
8
21
-8
0
LINE
8
0
10
8
20
-8
11
-8
21
-8
0
ENDSEC
0
EOF