<svg width="93.4mm" height="87.102mm" viewBox="0 0 93.4 87.102" xmlns="http://www.w3.org/2000/svg"><g id="svgGroup" stroke-linecap="round" fill-rule="evenodd" font-size="9pt" stroke="#000" stroke-width="0.25mm" fill="none" style="stroke:#000;stroke-width:0.25mm;fill:none"><path d="M 0 69.4 L 0 21.4 A 1 1 0 0 1 1 20.4 L 16 20.4 A 1 1 0 0 0 17 19.4 L 17 7.8 A 1 1 0 0 1 18 6.8 L 33 6.8 A 1 1 0 0 0 34 5.8 L 34 1 A 1 1 0 0 1 35 0 L 49 0 A 1 1 0 0 1 50 1 L 50 7.5 A 1 1 0 0 0 51 8.5 L 66 8.5 A 1 1 0 0 1 67 9.5 L 67 10.9 A 1 1 0 0 0 68 11.9 L 83.119 11.9 A 1 1 0 0 1 84.111 12.774 L 91.209 68.762 L 88.088 66.96 L 81.088 79.085 L 93.213 86.085 L 93.371 85.811 L 93.392 85.976 A 1 1 0 0 1 92.142 87.068 L 61.809 78.987 A 1 1 0 0 1 61.175 78.474 L 59.2 74.597 L 59.2 63.9 L 53.751 63.9 L 51.109 58.714 A 1 1 0 0 1 51 58.26 L 51 51 A 1 1 0 0 0 50 50 L 34 50 A 1 1 0 0 0 33 51 L 33 55.8 A 1 1 0 0 1 32 56.8 L 17 56.8 A 1 1 0 0 0 16 57.8 L 16 69.4 A 1 1 0 0 1 15 70.4 L 1 70.4 A 1 1 0 0 1 0 69.4 Z M 1 69.4 L 15 69.4 L 15 55.4 L 1 55.4 L 1 69.4 Z M 1 52.4 L 15 52.4 L 15 38.4 L 1 38.4 L 1 52.4 Z M 1 35.4 L 15 35.4 L 15 21.4 L 1 21.4 L 1 35.4 Z M 18 55.8 L 32 55.8 L 32 41.8 L 18 41.8 L 18 55.8 Z M 18 38.8 L 32 38.8 L 32 24.8 L 18 24.8 L 18 38.8 Z M 18 21.8 L 32 21.8 L 32 7.8 L 18 7.8 L 18 21.8 Z M 35 49 L 49 49 L 49 35 L 35 35 L 35 49 Z M 35 32 L 49 32 L 49 18 L 35 18 L 35 32 Z M 35 15 L 49 15 L 49 1 L 35 1 L 35 15 Z M 52 57.5 L 66 57.5 L 66 43.5 L 52 43.5 L 52 57.5 Z M 52 40.5 L 66 40.5 L 66 26.5 L 52 26.5 L 52 40.5 Z M 52 23.5 L 66 23.5 L 66 9.5 L 52 9.5 L 52 23.5 Z M 69 60.9 L 83 60.9 L 83 46.9 L 69 46.9 L 69 60.9 Z M 69 43.9 L 83 43.9 L 83 29.9 L 69 29.9 L 69 43.9 Z M 69 26.9 L 83 26.9 L 83 12.9 L 69 12.9 L 69 26.9 Z M 62.536 78.061 L 76.323 80.492 L 78.754 66.704 L 64.967 64.273 L 62.536 78.061 Z" vector-effect="non-scaling-stroke"/></g></svg>