<svg width="99.461mm" height="84.977mm" viewBox="0 0 99.461 84.977" xmlns="http://www.w3.org/2000/svg"><g id="svgGroup" stroke-linecap="round" fill-rule="evenodd" font-size="9pt" stroke="#000" stroke-width="0.25mm" fill="none" style="stroke:#000;stroke-width:0.25mm;fill:none"><path d="M 0 67 L 0 19 A 1 1 0 0 1 1 18 L 17 18 A 1 1 0 0 0 18 17 L 18 7 A 1 1 0 0 1 19 6 L 35 6 A 1 1 0 0 0 36 5 L 36 1 A 1 1 0 0 1 37 0 L 51 0 A 1 1 0 0 1 52 1 L 52 5.625 A 1 1 0 0 0 53 6.625 L 69 6.625 A 1 1 0 0 1 70 7.625 L 70 8 A 1 1 0 0 0 71 9 L 87.141 9 A 1 1 0 0 1 88.13 9.849 L 96.771 66.319 L 94.188 64.828 L 87.188 76.952 L 99.312 83.952 L 99.436 83.737 L 99.45 83.825 A 1 1 0 0 1 98.215 84.946 L 66.746 76.937 A 1 1 0 0 1 66.14 76.49 L 63.1 71.515 L 63.1 61.59 L 57.034 61.59 L 54.147 56.865 A 1 1 0 0 1 54 56.344 L 54 51 A 1 1 0 0 0 53 50 L 35 50 A 1 1 0 0 0 34 51 L 34 55 A 1 1 0 0 1 33 56 L 17 56 A 1 1 0 0 0 16 57 L 16 67 A 1 1 0 0 1 15 68 L 1 68 A 1 1 0 0 1 0 67 Z M 67.577 76.13 L 81.1 79.753 L 84.723 66.23 L 71.2 62.607 L 67.577 76.13 Z M 1 67 L 15 67 L 15 53 L 1 53 L 1 67 Z M 1 50 L 15 50 L 15 36 L 1 36 L 1 50 Z M 1 33 L 15 33 L 15 19 L 1 19 L 1 33 Z M 19 55 L 33 55 L 33 41 L 19 41 L 19 55 Z M 19 38 L 33 38 L 33 24 L 19 24 L 19 38 Z M 19 21 L 33 21 L 33 7 L 19 7 L 19 21 Z M 37 49 L 51 49 L 51 35 L 37 35 L 37 49 Z M 37 32 L 51 32 L 51 18 L 37 18 L 37 32 Z M 37 15 L 51 15 L 51 1 L 37 1 L 37 15 Z M 55 55.625 L 69 55.625 L 69 41.625 L 55 41.625 L 55 55.625 Z M 55 38.625 L 69 38.625 L 69 24.625 L 55 24.625 L 55 38.625 Z M 55 21.625 L 69 21.625 L 69 7.625 L 55 7.625 L 55 21.625 Z M 73 58 L 87 58 L 87 44 L 73 44 L 73 58 Z M 73 41 L 87 41 L 87 27 L 73 27 L 73 41 Z M 73 24 L 87 24 L 87 10 L 73 10 L 73 24 Z" vector-effect="non-scaling-stroke"/></g></svg>