0
SECTION
2
HEADER
9
$INSUNITS
70
4
0
ENDSEC
0
SECTION
2
TABLES
0
TABLE
2
LTYPE
0
LTYPE
72
65
70
64
2
CONTINUOUS
3
______
73
0
40
0
0
ENDTAB
0
TABLE
2
LAYER
0
ENDTAB
0
ENDSEC
0
SECTION
2
ENTITIES
0
LINE
8
0
10
-9
20
9
11
9
21
9
0
LINE
8
0
10
9
20
9
11
9
21
-9
0
LINE
8
0
10
9
20
-9
11
-9
21
-9
0
LINE
8
0
10
-9
20
-9
11
-9
21
9
0
LINE
8
0
10
-9
20
26
11
9
21
26
0
LINE
8
0
10
9
20
26
11
9
21
8
0
LINE
8
0
10
9
20
8
11
-9
21
8
0
LINE
8
0
10
-9
20
8
11
-9
21
26
0
LINE
8
0
10
-9
20
43
11
9
21
43
0
LINE
8
0
10
9
20
43
11
9
21
25
0
LINE
8
0
10
9
20
25
11
-9
21
25
0
LINE
8
0
10
-9
20
25
11
-9
21
43
0
LINE
8
0
10
8
20
22.6
11
26
21
22.6
0
LINE
8
0
10
26
20
22.6
11
26
21
4.6
0
LINE
8
0
10
26
20
4.6
11
8
21
4.6
0
LINE
8
0
10
8
20
4.6
11
8
21
22.6
0
LINE
8
0
10
8
20
39.6
11
26
21
39.6
0
LINE
8
0
10
26
20
39.6
11
26
21
21.6
0
LINE
8
0
10
26
20
21.6
11
8
21
21.6
0
LINE
8
0
10
8
20
21.6
11
8
21
39.6
0
LINE
8
0
10
8
20
56.6
11
26
21
56.6
0
LINE
8
0
10
26
20
56.6
11
26
21
38.6
0
LINE
8
0
10
26
20
38.6
11
8
21
38.6
0
LINE
8
0
10
8
20
38.6
11
8
21
56.6
0
LINE
8
0
10
25
20
29.4
11
43
21
29.4
0
LINE
8
0
10
43
20
29.4
11
43
21
11.4
0
LINE
8
0
10
43
20
11.4
11
25
21
11.4
0
LINE
8
0
10
25
20
11.4
11
25
21
29.4
0
LINE
8
0
10
25
20
46.4
11
43
21
46.4
0
LINE
8
0
10
43
20
46.4
11
43
21
28.4
0
LINE
8
0
10
43
20
28.4
11
25
21
28.4
0
LINE
8
0
10
25
20
28.4
11
25
21
46.4
0
LINE
8
0
10
25
20
63.4
11
43
21
63.4
0
LINE
8
0
10
43
20
63.4
11
43
21
45.4
0
LINE
8
0
10
43
20
45.4
11
25
21
45.4
0
LINE
8
0
10
25
20
45.4
11
25
21
63.4
0
LINE
8
0
10
42
20
20.9
11
60
21
20.9
0
LINE
8
0
10
60
20
20.9
11
60
21
2.9
0
LINE
8
0
10
60
20
2.9
11
42
21
2.9
0
LINE
8
0
10
42
20
2.9
11
42
21
20.9
0
LINE
8
0
10
42
20
37.9
11
60
21
37.9
0
LINE
8
0
10
60
20
37.9
11
60
21
19.9
0
LINE
8
0
10
60
20
19.9
11
42
21
19.9
0
LINE
8
0
10
42
20
19.9
11
42
21
37.9
0
LINE
8
0
10
42
20
54.9
11
60
21
54.9
0
LINE
8
0
10
60
20
54.9
11
60
21
36.9
0
LINE
8
0
10
60
20
36.9
11
42
21
36.9
0
LINE
8
0
10
42
20
36.9
11
42
21
54.9
0
LINE
8
0
10
59
20
17.5
11
77
21
17.5
0
LINE
8
0
10
77
20
17.5
11
77
21
-0.5
0
LINE
8
0
10
77
20
-0.5
11
59
21
-0.5
0
LINE
8
0
10
59
20
-0.5
11
59
21
17.5
0
LINE
8
0
10
59
20
34.5
11
77
21
34.5
0
LINE
8
0
10
77
20
34.5
11
77
21
16.5
0
LINE
8
0
10
77
20
16.5
11
59
21
16.5
0
LINE
8
0
10
59
20
16.5
11
59
21
34.5
0
LINE
8
0
10
59
20
51.5
11
77
21
51.5
0
LINE
8
0
10
77
20
51.5
11
77
21
33.5
0
LINE
8
0
10
77
20
33.5
11
59
21
33.5
0
LINE
8
0
10
59
20
33.5
11
59
21
51.5
0
LINE
8
0
10
35.2
20
0.5
11
53.2
21
0.5
0
LINE
8
0
10
53.2
20
0.5
11
53.2
21
-17.5
0
LINE
8
0
10
53.2
20
-17.5
11
35.2
21
-17.5
0
LINE
8
0
10
35.2
20
-17.5
11
35.2
21
0.5
0
LINE
8
0
10
55.3446575
20
0.4435998
11
73.0711971
21
-2.6820674
0
LINE
8
0
10
73.0711971
20
-2.6820674
11
69.9455299
21
-20.408607
0
LINE
8
0
10
69.9455299
20
-20.408607
11
52.2189903
21
-17.2829398
0
LINE
8
0
10
52.2189903
20
-17.2829398
11
55.3446575
21
0.4435998
0
LINE
8
0
10
79.3561151
20
-1.8281175
11
94.9445723
21
-10.8281175
0
LINE
8
0
10
94.9445723
20
-10.8281175
11
85.9445723
21
-26.4165747
0
LINE
8
0
10
85.9445723
20
-26.4165747
11
70.3561151
21
-17.4165747
0
LINE
8
0
10
70.3561151
20
-17.4165747
11
79.3561151
21
-1.8281175
0
ENDSEC
0
EOF