<svg width="103.945mm" height="89.817mm" viewBox="0 0 103.945 89.817" xmlns="http://www.w3.org/2000/svg"><g id="svgGroup" stroke-linecap="round" fill-rule="evenodd" font-size="9pt" stroke="#000" stroke-width="0.25mm" fill="none" style="stroke:#000;stroke-width:0.25mm;fill:none"><path d="M 64.345 62.956 L 82.071 66.082 L 78.946 83.809 L 61.219 80.683 L 64.345 62.956 Z M 0 54.4 L 18 54.4 L 18 72.4 L 0 72.4 L 0 54.4 Z M 0 37.4 L 18 37.4 L 18 55.4 L 0 55.4 L 0 37.4 Z M 0 20.4 L 18 20.4 L 18 38.4 L 0 38.4 L 0 20.4 Z M 17 40.8 L 35 40.8 L 35 58.8 L 17 58.8 L 17 40.8 Z M 17 23.8 L 35 23.8 L 35 41.8 L 17 41.8 L 17 23.8 Z M 17 6.8 L 35 6.8 L 35 24.8 L 17 24.8 L 17 6.8 Z M 34 34 L 52 34 L 52 52 L 34 52 L 34 34 Z M 34 17 L 52 17 L 52 35 L 34 35 L 34 17 Z M 34 0 L 52 0 L 52 18 L 34 18 L 34 0 Z M 51 42.5 L 69 42.5 L 69 60.5 L 51 60.5 L 51 42.5 Z M 51 25.5 L 69 25.5 L 69 43.5 L 51 43.5 L 51 25.5 Z M 51 8.5 L 69 8.5 L 69 26.5 L 51 26.5 L 51 8.5 Z M 68 45.9 L 86 45.9 L 86 63.9 L 68 63.9 L 68 45.9 Z M 68 28.9 L 86 28.9 L 86 46.9 L 68 46.9 L 68 28.9 Z M 68 11.9 L 86 11.9 L 86 29.9 L 68 29.9 L 68 11.9 Z M 44.2 62.9 L 62.2 62.9 L 62.2 80.9 L 44.2 80.9 L 44.2 62.9 Z M 88.356 65.228 L 103.945 74.228 L 94.945 89.817 L 79.356 80.817 L 88.356 65.228 Z" vector-effect="non-scaling-stroke"/></g></svg>