0
SECTION
2
HEADER
9
$INSUNITS
70
4
0
ENDSEC
0
SECTION
2
TABLES
0
TABLE
2
LTYPE
0
LTYPE
72
65
70
64
2
CONTINUOUS
3
______
73
0
40
0
0
ENDTAB
0
TABLE
2
LAYER
0
ENDTAB
0
ENDSEC
0
SECTION
2
ENTITIES
0
LINE
8
0
10
-9
20
9
11
9
21
9
0
LINE
8
0
10
9
20
9
11
9
21
-9
0
LINE
8
0
10
9
20
-9
11
-9
21
-9
0
LINE
8
0
10
-9
20
-9
11
-9
21
9
0
LINE
8
0
10
-9
20
26
11
9
21
26
0
LINE
8
0
10
9
20
26
11
9
21
8
0
LINE
8
0
10
9
20
8
11
-9
21
8
0
LINE
8
0
10
-9
20
8
11
-9
21
26
0
LINE
8
0
10
-9
20
43
11
9
21
43
0
LINE
8
0
10
9
20
43
11
9
21
25
0
LINE
8
0
10
9
20
25
11
-9
21
25
0
LINE
8
0
10
-9
20
25
11
-9
21
43
0
LINE
8
0
10
9
20
21
11
27
21
21
0
LINE
8
0
10
27
20
21
11
27
21
3
0
LINE
8
0
10
27
20
3
11
9
21
3
0
LINE
8
0
10
9
20
3
11
9
21
21
0
LINE
8
0
10
9
20
38
11
27
21
38
0
LINE
8
0
10
27
20
38
11
27
21
20
0
LINE
8
0
10
27
20
20
11
9
21
20
0
LINE
8
0
10
9
20
20
11
9
21
38
0
LINE
8
0
10
9
20
55
11
27
21
55
0
LINE
8
0
10
27
20
55
11
27
21
37
0
LINE
8
0
10
27
20
37
11
9
21
37
0
LINE
8
0
10
9
20
37
11
9
21
55
0
LINE
8
0
10
27
20
27
11
45
21
27
0
LINE
8
0
10
45
20
27
11
45
21
9
0
LINE
8
0
10
45
20
9
11
27
21
9
0
LINE
8
0
10
27
20
9
11
27
21
27
0
LINE
8
0
10
27
20
44
11
45
21
44
0
LINE
8
0
10
45
20
44
11
45
21
26
0
LINE
8
0
10
45
20
26
11
27
21
26
0
LINE
8
0
10
27
20
26
11
27
21
44
0
LINE
8
0
10
27
20
61
11
45
21
61
0
LINE
8
0
10
45
20
61
11
45
21
43
0
LINE
8
0
10
45
20
43
11
27
21
43
0
LINE
8
0
10
27
20
43
11
27
21
61
0
LINE
8
0
10
45
20
20.375
11
63
21
20.375
0
LINE
8
0
10
63
20
20.375
11
63
21
2.375
0
LINE
8
0
10
63
20
2.375
11
45
21
2.375
0
LINE
8
0
10
45
20
2.375
11
45
21
20.375
0
LINE
8
0
10
45
20
37.375
11
63
21
37.375
0
LINE
8
0
10
63
20
37.375
11
63
21
19.375
0
LINE
8
0
10
63
20
19.375
11
45
21
19.375
0
LINE
8
0
10
45
20
19.375
11
45
21
37.375
0
LINE
8
0
10
45
20
54.375
11
63
21
54.375
0
LINE
8
0
10
63
20
54.375
11
63
21
36.375
0
LINE
8
0
10
63
20
36.375
11
45
21
36.375
0
LINE
8
0
10
45
20
36.375
11
45
21
54.375
0
LINE
8
0
10
63
20
18
11
81
21
18
0
LINE
8
0
10
81
20
18
11
81
21
0
0
LINE
8
0
10
81
20
0
11
63
21
0
0
LINE
8
0
10
63
20
0
11
63
21
18
0
LINE
8
0
10
63
20
35
11
81
21
35
0
LINE
8
0
10
81
20
35
11
81
21
17
0
LINE
8
0
10
81
20
17
11
63
21
17
0
LINE
8
0
10
63
20
17
11
63
21
35
0
LINE
8
0
10
63
20
52
11
81
21
52
0
LINE
8
0
10
81
20
52
11
81
21
34
0
LINE
8
0
10
81
20
34
11
63
21
34
0
LINE
8
0
10
63
20
34
11
63
21
52
0
LINE
8
0
10
39.1
20
0.41
11
57.1
21
0.41
0
LINE
8
0
10
57.1
20
0.41
11
57.1
21
-17.59
0
LINE
8
0
10
57.1
20
-17.59
11
39.1
21
-17.59
0
LINE
8
0
10
39.1
20
-17.59
11
39.1
21
0.41
0
LINE
8
0
10
61.786039
20
-0.1572962
11
79.1727038
21
-4.816039
0
LINE
8
0
10
79.1727038
20
-4.816039
11
74.513961
21
-22.2027038
0
LINE
8
0
10
74.513961
20
-22.2027038
11
57.1272962
21
-17.543961
0
LINE
8
0
10
57.1272962
20
-17.543961
11
61.786039
21
-0.1572962
0
LINE
8
0
10
85.4557714
20
-2.0957714
11
101.0442286
21
-11.0957714
0
LINE
8
0
10
101.0442286
20
-11.0957714
11
92.0442286
21
-26.6842286
0
LINE
8
0
10
92.0442286
20
-26.6842286
11
76.4557714
21
-17.6842286
0
LINE
8
0
10
76.4557714
20
-17.6842286
11
85.4557714
21
-2.0957714
0
ENDSEC
0
EOF